<svg width="46" height="30" viewBox="0 0 46 30" fill="none" xmlns="http://www.w3.org/2000/svg">
<path d="M44 24.5378L38.4538 5.5042L28.0168 2L26.8319 6.20168C25.5966 6.05042 24.3109 5.94958 23 5.94958C21.6891 5.94958 20.4034 6.02521 19.1681 6.20168L17.9832 2L7.54622 5.5042L2 24.5378L11.605 28.4958L14.7311 24.916C17.2017 25.6723 20 26.1008 22.9748 26.1008C25.9496 26.1008 28.7479 25.6723 31.2185 24.916L34.3445 28.4958L44 24.5378Z" stroke="white" stroke-width="2" stroke-miterlimit="10"/>
<path d="M12.0078 8.14274C15.0582 6.75619 18.8649 5.94946 22.9994 5.94946C27.1339 5.94946 30.9406 6.75619 33.991 8.14274" stroke="white" stroke-width="2" stroke-miterlimit="10"/>
<path d="M35.1773 23.3278C31.9756 25.0673 27.6899 26.1261 22.9756 26.1261C18.2865 26.1261 14.0008 25.0673 10.7739 23.3278" stroke="white" stroke-width="2" stroke-miterlimit="10"/>
<path d="M17.1523 20.7311C18.9483 20.7311 20.4043 19.2751 20.4043 17.479C20.4043 15.6829 18.9483 14.2269 17.1523 14.2269C15.3562 14.2269 13.9001 15.6829 13.9001 17.479C13.9001 19.2751 15.3562 20.7311 17.1523 20.7311Z" stroke="white" stroke-width="2" stroke-miterlimit="10"/>
<path d="M26.2521 20.5042C28.0482 20.5042 29.5042 19.0482 29.5042 17.2521C29.5042 15.456 28.0482 14 26.2521 14C24.456 14 23 15.456 23 17.2521C23 19.0482 24.456 20.5042 26.2521 20.5042Z" stroke="white" stroke-width="2" stroke-miterlimit="10"/>
</svg>
