<svg width="44" height="29" viewBox="0 0 44 29" fill="none" xmlns="http://www.w3.org/2000/svg">
<path d="M35 1H9C5.22876 1 3.34315 1 2.17157 2.17157C1 3.34315 1 5.22876 1 9V19.0872C1 22.8584 1 24.744 2.17157 25.9156C3.34315 27.0872 5.22876 27.0872 9 27.0872H35C38.7712 27.0872 40.6569 27.0872 41.8284 25.9156C43 24.744 43 22.8584 43 19.0872V9C43 5.22876 43 3.34315 41.8284 2.17157C40.6569 1 38.7712 1 35 1Z" stroke="white" stroke-width="2" stroke-miterlimit="10"/>
<path d="M27.926 15.7354C29.1782 14.9714 29.8043 14.5894 29.8043 14.0281C29.8043 13.4668 29.1782 13.0848 27.926 12.3208L21.5134 8.4083C20.1663 7.58641 19.4927 7.17547 18.9822 7.46203C18.4717 7.74859 18.4717 8.5376 18.4717 10.1156V17.9406C18.4717 19.5186 18.4717 20.3076 18.9822 20.5942C19.4927 20.8808 20.1663 20.4698 21.5134 19.6479L27.926 15.7354Z" stroke="white" stroke-width="2" stroke-miterlimit="10"/>
</svg>
