<svg width="24" height="25" viewBox="0 0 24 25" fill="none" xmlns="http://www.w3.org/2000/svg">
<path d="M15.5575 11.6106L12 15.1681L8.4425 11.6106" stroke="white" stroke-width="1.5" stroke-linecap="round" stroke-linejoin="round"/>
<path d="M12 4.4967V15.1681" stroke="white" stroke-width="1.5" stroke-linecap="round" stroke-linejoin="round"/>
<path d="M20.7533 16.9457C20.7533 16.5315 20.4175 16.1957 20.0033 16.1957C19.5891 16.1957 19.2533 16.5315 19.2533 16.9457H20.7533ZM4.74664 16.9457C4.74664 16.5315 4.41086 16.1957 3.99664 16.1957C3.58243 16.1957 3.24664 16.5315 3.24664 16.9457H4.74664ZM19.2533 16.9457C19.2533 18.4962 17.9964 19.7532 16.4458 19.7532V21.2532C18.8248 21.2532 20.7533 19.3246 20.7533 16.9457H19.2533ZM16.4458 19.7532H7.55412V21.2532H16.4458V19.7532ZM7.55412 19.7532C6.0036 19.7532 4.74664 18.4962 4.74664 16.9457H3.24664C3.24664 19.3246 5.17517 21.2532 7.55412 21.2532V19.7532Z" fill="white"/>
</svg>
