<svg width="17" height="25" viewBox="0 0 17 25" fill="none" xmlns="http://www.w3.org/2000/svg">
<path d="M14.6545 8.74531C15.877 7.94187 16.6856 6.55859 16.6856 4.99016C16.6856 2.51422 14.6709 0.5 12.195 0.5H4.49063C2.01469 0.5 0 2.51422 0 4.99016C0 6.55859 0.808594 7.94187 2.03109 8.74531C0.808594 9.54828 0 10.9316 0 12.5C0 14.0684 0.808594 15.4517 2.03109 16.2552C0.808594 17.0577 0 18.4414 0 20.0098C0 22.4858 2.02547 24.5 4.51453 24.5C7.03078 24.5 9.07828 22.4638 9.07828 19.9611V15.8202C9.87609 16.5472 10.9359 16.9902 12.0975 16.9902H12.195C14.6709 16.9902 16.6856 14.9759 16.6856 12.5C16.6856 10.9316 15.877 9.54828 14.6545 8.74531ZM9.07828 1.97094H12.195C13.86 1.97094 15.2147 3.32516 15.2147 4.99016C15.2147 6.65516 13.86 8.00984 12.195 8.00984H9.07828V1.97094ZM1.47094 4.99016C1.47094 3.32516 2.82563 1.97094 4.49063 1.97094H7.60734V8.00984H4.49063C2.82563 8.00984 1.47094 6.65516 1.47094 4.99016ZM1.47094 12.5C1.47094 10.835 2.82563 9.48078 4.49063 9.48078H7.60734V15.5197H4.47141C2.81531 15.5094 1.47094 14.1584 1.47094 12.5ZM7.60734 19.9611C7.60734 21.6528 6.21984 23.0291 4.51453 23.0291C2.83641 23.0291 1.47094 21.6748 1.47094 20.0098C1.47094 18.3448 2.82563 16.9902 4.49063 16.9902H7.60734V19.9611ZM12.195 15.5197H12.0975C10.4325 15.5197 9.07828 14.165 9.07828 12.5C9.07828 10.835 10.4325 9.48078 12.0975 9.48078H12.195C13.86 9.48078 15.2147 10.835 15.2147 12.5C15.2147 14.165 13.86 15.5197 12.195 15.5197Z" fill="white"/>
</svg>
