<svg width="21" height="20" viewBox="0 0 21 20" fill="none" xmlns="http://www.w3.org/2000/svg">
<path d="M10.9957 6.66671C10.8807 6.66671 10.7874 6.76004 10.7882 6.87504C10.7882 6.99004 10.8815 7.08337 10.9965 7.08337C11.1115 7.08337 11.2049 6.99004 11.2049 6.87504C11.2049 6.76004 11.1115 6.66671 10.9957 6.66671" stroke="white" stroke-width="1.5" stroke-linecap="round" stroke-linejoin="round"/>
<path fill-rule="evenodd" clip-rule="evenodd" d="M10.9965 17.5V17.5C6.85402 17.5 3.49652 14.1425 3.49652 10V10C3.49652 5.8575 6.85402 2.5 10.9965 2.5V2.5C15.139 2.5 18.4965 5.8575 18.4965 10V10C18.4965 14.1425 15.139 17.5 10.9965 17.5Z" stroke="white" stroke-width="1.5" stroke-linecap="round" stroke-linejoin="round"/>
<path d="M10.9965 10V14.1667" stroke="white" stroke-width="1.5" stroke-linecap="round" stroke-linejoin="round"/>
</svg>
