<svg width="24" height="25" viewBox="0 0 24 25" fill="none" xmlns="http://www.w3.org/2000/svg">
<g clip-path="url(#clip0_2658_30928)">
<path d="M20.9347 5.39356L16.2474 0.705969C16.1155 0.574109 15.9367 0.5 15.7502 0.5H4.96875C3.80564 0.5 2.85938 1.44627 2.85938 2.60938V22.3906C2.85938 23.5537 3.80564 24.5 4.96875 24.5H19.0312C20.1944 24.5 21.1406 23.5537 21.1406 22.3906V5.89077C21.1406 5.7043 21.0666 5.52542 20.9347 5.39356ZM16.4531 2.90061L18.74 5.1875H16.4531V2.90061ZM19.0312 23.0938H4.96875C4.58105 23.0938 4.26562 22.7783 4.26562 22.3906V2.60938C4.26562 2.22167 4.58105 1.90625 4.96875 1.90625H15.0469V5.89062C15.0469 6.27894 15.3617 6.59375 15.75 6.59375H19.7344V22.3906C19.7344 22.7783 19.419 23.0938 19.0312 23.0938Z" fill="white"/>
<path d="M16.3671 15.494H14.6765L12.8111 12.2632L13.6564 10.7991C14.0023 10.2 14.0024 9.48463 13.6564 8.88552C13.3105 8.28641 12.691 7.92871 11.9992 7.92871C11.3074 7.92871 10.6879 8.28637 10.342 8.88552C9.99606 9.48463 9.99611 10.2 10.342 10.7991L11.1873 12.2632L9.322 15.494H7.63145C6.93967 15.494 6.32017 15.8517 5.97428 16.4508C5.62834 17.0499 5.62839 17.7652 5.97428 18.3643C6.32012 18.9634 6.93962 19.3211 7.63141 19.3211H7.63145C8.32323 19.3211 8.94278 18.9634 9.28867 18.3644L10.134 16.9003H13.8646L14.7099 18.3644C15.0558 18.9635 15.6753 19.3211 16.3671 19.3211C17.0589 19.3211 17.6784 18.9634 18.0242 18.3644C18.3701 17.7652 18.3701 17.0499 18.0242 16.4508C17.6783 15.8517 17.0589 15.494 16.3671 15.494ZM8.07081 17.6612C7.93862 17.8901 7.71953 17.9149 7.63145 17.9149C7.54337 17.9149 7.32428 17.8902 7.19214 17.6612C7.05995 17.4323 7.14812 17.2302 7.19214 17.1539C7.23615 17.0776 7.36708 16.9003 7.63145 16.9003H8.51017L8.07081 17.6612ZM11.5599 9.58865C11.6039 9.51238 11.7349 9.33496 11.9993 9.33496C12.2636 9.33496 12.3946 9.51234 12.4386 9.58865C12.4826 9.66491 12.5708 9.86699 12.4386 10.096L11.9993 10.8569L11.5599 10.096C11.4277 9.86699 11.5159 9.66491 11.5599 9.58865ZM10.9458 15.494L11.9993 13.6694L13.0527 15.494H10.9458ZM16.8064 17.6612C16.6743 17.8901 16.4552 17.9149 16.3671 17.9149C16.279 17.9149 16.0599 17.8902 15.9277 17.6612L15.4884 16.9003H16.3671C16.6315 16.9003 16.7624 17.0776 16.8064 17.1539C16.8504 17.2302 16.9386 17.4323 16.8064 17.6612Z" fill="white"/>
</g>
<defs>
<clipPath id="clip0_2658_30928">
<rect width="24" height="24" fill="white" transform="translate(0 0.5)"/>
</clipPath>
</defs>
</svg>
