<svg width="72" height="72" viewBox="0 0 72 72" fill="none" xmlns="http://www.w3.org/2000/svg">
<g clip-path="url(#clip0_23_589)">
<path d="M51.6783 45.4724L51 46.1612L50.3215 45.4723C49.7105 44.8479 48.981 44.3518 48.1757 44.0132C47.3704 43.6745 46.5056 43.5 45.632 43.5C44.7584 43.5 43.8936 43.6745 43.0883 44.0132C42.283 44.3518 41.5535 44.8479 40.9425 45.4723V45.4723C39.6973 46.7446 39 48.4539 39 50.2341C39 52.0142 39.6973 53.7236 40.9425 54.9958L47.2877 61.4387C47.7714 61.933 48.3489 62.3257 48.9864 62.5938C49.6239 62.8619 50.3085 63 51 63C51.6916 63 52.3762 62.8619 53.0136 62.5938C53.6511 62.3257 54.2286 61.933 54.7123 61.4387L61.0574 54.996C62.3026 53.7237 62.9999 52.0144 62.9999 50.2342C62.9999 48.454 62.3026 46.7446 61.0574 45.4724V45.4724C60.4464 44.848 59.7169 44.3519 58.9116 44.0132C58.1063 43.6745 57.2415 43.5001 56.3679 43.5001C55.4942 43.5001 54.6294 43.6745 53.8241 44.0132C53.0188 44.3519 52.2893 44.848 51.6783 45.4724V45.4724Z" stroke="white" stroke-width="1.5" stroke-linecap="round" stroke-linejoin="round"/>
<path d="M30 45H21C17.8174 45 14.7652 46.2643 12.5147 48.5147C10.2643 50.7652 9 53.8174 9 57V60" stroke="white" stroke-width="1.5" stroke-linecap="round" stroke-linejoin="round"/>
<path d="M33 33C39.6274 33 45 27.6274 45 21C45 14.3726 39.6274 9 33 9C26.3726 9 21 14.3726 21 21C21 27.6274 26.3726 33 33 33Z" stroke="white" stroke-width="1.5" stroke-linecap="round" stroke-linejoin="round"/>
</g>
<defs>
<clipPath id="clip0_23_589">
<rect width="72" height="72" fill="white"/>
</clipPath>
</defs>
</svg>
