<svg width="72" height="72" viewBox="0 0 72 72" fill="none" xmlns="http://www.w3.org/2000/svg">
<path d="M57 36V23.484C57 21.894 56.367 20.367 55.242 19.242L46.758 10.758C45.633 9.633 44.106 9 42.516 9H21C17.685 9 15 11.685 15 15V57C15 60.315 17.685 63 21 63H33" stroke="white" stroke-width="1.5" stroke-linecap="round" stroke-linejoin="round"/>
<path d="M24 27H48" stroke="white" stroke-width="1.5" stroke-linecap="round" stroke-linejoin="round"/>
<path d="M24 36H48" stroke="white" stroke-width="1.5" stroke-linecap="round" stroke-linejoin="round"/>
<path d="M24 45H30" stroke="white" stroke-width="1.5" stroke-linecap="round" stroke-linejoin="round"/>
<path d="M50.5764 46.701L49.6764 47.658L48.7734 46.698C46.7934 44.595 43.5084 44.421 41.3184 46.305C39.0804 48.231 38.8134 51.564 40.6554 53.871C43.2894 57.174 46.3074 60.432 49.6764 62.997C53.1294 60.369 56.2134 57.009 58.8924 53.622C60.6324 51.423 60.2754 48.231 58.1514 46.404L58.0524 46.32C55.8444 44.424 52.5564 44.595 50.5764 46.701V46.701Z" stroke="white" stroke-width="1.5" stroke-linecap="round" stroke-linejoin="round"/>
</svg>
