<svg width="72" height="72" viewBox="0 0 72 72" fill="none" xmlns="http://www.w3.org/2000/svg">
<path d="M57 42C53.685 42 51 39.315 51 36C51 32.685 53.685 30 57 30C60.315 30 63 32.685 63 36C63 39.315 60.315 42 57 42Z" stroke="white" stroke-width="1.5" stroke-linecap="round" stroke-linejoin="round"/>
<path d="M42 57C42 60.315 39.315 63 36 63C32.685 63 30 60.315 30 57C30 53.685 32.685 51 36 51C39.315 51 42 53.685 42 57Z" stroke="white" stroke-width="1.5" stroke-linecap="round" stroke-linejoin="round"/>
<path d="M57 63C53.685 63 51 60.315 51 57C51 53.685 53.685 51 57 51C60.315 51 63 53.685 63 57C63 60.315 60.315 63 57 63Z" stroke="white" stroke-width="1.5" stroke-linecap="round" stroke-linejoin="round"/>
<path d="M36 21C32.685 21 30 18.315 30 15C30 11.685 32.685 9 36 9C39.315 9 42 11.685 42 15C42 18.315 39.315 21 36 21Z" stroke="white" stroke-width="1.5" stroke-linecap="round" stroke-linejoin="round"/>
<path d="M51 15C51 11.685 53.685 9 57 9C60.315 9 63 11.685 63 15C63 18.315 60.315 21 57 21C53.685 21 51 18.315 51 15Z" stroke="white" stroke-width="1.5" stroke-linecap="round" stroke-linejoin="round"/>
<path d="M40.2302 52.7703L52.7702 40.2303" stroke="white" stroke-width="1.5" stroke-linecap="round" stroke-linejoin="round"/>
<path d="M19.2302 52.7703L31.7702 40.2303" stroke="white" stroke-width="1.5" stroke-linecap="round" stroke-linejoin="round"/>
<path d="M40.2302 31.7703L52.7702 19.2303" stroke="white" stroke-width="1.5" stroke-linecap="round" stroke-linejoin="round"/>
<path d="M30 36C30 32.685 32.685 30 36 30C39.315 30 42 32.685 42 36C42 39.315 39.315 42 36 42C32.685 42 30 39.315 30 36Z" stroke="white" stroke-width="1.5" stroke-linecap="round" stroke-linejoin="round"/>
<path d="M19.2302 31.7703L31.7702 19.2303" stroke="white" stroke-width="1.5" stroke-linecap="round" stroke-linejoin="round"/>
<path d="M15 42C11.685 42 9 39.315 9 36C9 32.685 11.685 30 15 30C18.315 30 21 32.685 21 36C21 39.315 18.315 42 15 42Z" stroke="white" stroke-width="1.5" stroke-linecap="round" stroke-linejoin="round"/>
<path d="M21 57C21 60.315 18.315 63 15 63C11.685 63 9 60.315 9 57C9 53.685 11.685 51 15 51C18.315 51 21 53.685 21 57Z" stroke="white" stroke-width="1.5" stroke-linecap="round" stroke-linejoin="round"/>
<path d="M15 21C11.685 21 9 18.315 9 15C9 11.685 11.685 9 15 9C18.315 9 21 11.685 21 15C21 18.315 18.315 21 15 21Z" stroke="white" stroke-width="1.5" stroke-linecap="round" stroke-linejoin="round"/>
</svg>
