<svg width="72" height="72" viewBox="0 0 72 72" fill="none" xmlns="http://www.w3.org/2000/svg">
<path d="M35.9965 44.652L42.0145 47.814C43.1845 48.429 44.5555 47.436 44.3305 46.131L43.1815 39.432L48.0505 34.692C48.9985 33.768 48.4765 32.157 47.1655 31.968L40.4395 30.99L37.4305 24.891C36.8455 23.703 35.1535 23.703 34.5655 24.891L31.5595 30.99L24.8335 31.968C23.5225 32.157 23.0005 33.768 23.9485 34.692L28.8175 39.432L27.6685 46.131C27.4435 47.436 28.8145 48.429 29.9845 47.814L36.0025 44.652H35.9965V44.652Z" stroke="white" stroke-width="1.5" stroke-linecap="round" stroke-linejoin="round"/>
<path d="M64.5007 36H61.2007" stroke="white" stroke-width="1.5" stroke-linecap="round" stroke-linejoin="round"/>
<path d="M10.8 36H7.5" stroke="white" stroke-width="1.5" stroke-linecap="round" stroke-linejoin="round"/>
<path d="M56.5792 15.4203L53.4292 18.5703" stroke="white" stroke-width="1.5" stroke-linecap="round" stroke-linejoin="round"/>
<path d="M15.4802 56.6701L18.6602 53.4901" stroke="white" stroke-width="1.5" stroke-linecap="round" stroke-linejoin="round"/>
<path d="M15.4192 15.4803L18.5692 18.6603" stroke="white" stroke-width="1.5" stroke-linecap="round" stroke-linejoin="round"/>
<path d="M56.6702 56.5802L53.4902 53.4302" stroke="white" stroke-width="1.5" stroke-linecap="round" stroke-linejoin="round"/>
<path d="M36 61.3198V64.4998" stroke="white" stroke-width="1.5" stroke-linecap="round" stroke-linejoin="round"/>
<path d="M36 7.5V10.68" stroke="white" stroke-width="1.5" stroke-linecap="round" stroke-linejoin="round"/>
</svg>
