<svg width="72" height="72" viewBox="0 0 72 72" fill="none" xmlns="http://www.w3.org/2000/svg">
<path d="M58.6792 21.3573C64.4392 30.2673 64.4362 41.7393 58.6822 50.6463" stroke="white" stroke-width="1.5" stroke-linecap="round" stroke-linejoin="round"/>
<path d="M46.6436 25.3572C52.5214 31.2349 52.5214 40.7647 46.6436 46.6425C40.7658 52.5203 31.2361 52.5203 25.3583 46.6425C19.4805 40.7647 19.4805 31.2349 25.3583 25.3572C31.2361 19.4794 40.7658 19.4794 46.6436 25.3572Z" stroke="white" stroke-width="1.5" stroke-linecap="round" stroke-linejoin="round"/>
<path d="M42.9636 22.6534L50.7156 13.2364C51.8436 11.8654 53.9076 11.7664 55.1646 13.0204L58.9836 16.8394C60.2406 18.0964 60.1386 20.1604 58.7676 21.2884L49.3506 29.0404" stroke="white" stroke-width="1.5" stroke-linecap="round" stroke-linejoin="round"/>
<path d="M29.0364 49.3467L21.2844 58.7637C20.1564 60.1347 18.0924 60.2337 16.8354 58.9797L13.0164 55.1607C11.7594 53.9037 11.8614 51.8397 13.2324 50.7117L22.6494 42.9597" stroke="white" stroke-width="1.5" stroke-linecap="round" stroke-linejoin="round"/>
<path d="M22.6534 29.0372L13.2334 21.2852C11.8624 20.1572 11.7634 18.0932 13.0174 16.8362L16.8364 13.0172C18.0934 11.7602 20.1574 11.8622 21.2854 13.2332L29.0374 22.6502" stroke="white" stroke-width="1.5" stroke-linecap="round" stroke-linejoin="round"/>
<path d="M49.3477 42.9626L58.7647 50.7146C60.1357 51.8426 60.2347 53.9066 58.9807 55.1636L55.1617 58.9826C53.9047 60.2396 51.8407 60.1376 50.7127 58.7666L42.9607 49.3496" stroke="white" stroke-width="1.5" stroke-linecap="round" stroke-linejoin="round"/>
<path d="M50.6462 58.6831C41.7392 64.4371 30.2642 64.4401 21.3572 58.6801" stroke="white" stroke-width="1.5" stroke-linecap="round" stroke-linejoin="round"/>
<path d="M13.3165 21.3543C7.56249 30.2613 7.55949 41.7333 13.3195 50.6433" stroke="white" stroke-width="1.5" stroke-linecap="round" stroke-linejoin="round"/>
<path d="M50.6432 13.3205C41.7332 7.56047 30.2612 7.56347 21.3542 13.3175" stroke="white" stroke-width="1.5" stroke-linecap="round" stroke-linejoin="round"/>
</svg>
