<svg width="72" height="72" viewBox="0 0 72 72" fill="none" xmlns="http://www.w3.org/2000/svg">
<path d="M35.9975 42.069L41.2625 44.835C42.2885 45.375 43.4855 44.502 43.2905 43.362L42.2855 37.5L46.5455 33.351C47.3765 32.544 46.9175 31.134 45.7715 30.969L39.8855 30.114L37.2545 24.78C36.7415 23.742 35.2595 23.742 34.7495 24.78L32.1185 30.117L26.2325 30.972C25.0865 31.14 24.6275 32.547 25.4585 33.354L29.7185 37.503L28.7105 43.365C28.5155 44.505 29.7125 45.375 30.7385 44.838L36.0035 42.072" stroke="white" stroke-width="1.5" stroke-linecap="round" stroke-linejoin="round"/>
<path d="M26.9109 53.9446L26.9127 53.9445C26.9897 53.9395 27.0666 53.937 27.1434 53.937C28.1412 53.937 29.1009 54.3347 29.8053 55.0465L29.8055 55.0467C30.5653 55.814 30.9582 56.8745 30.8832 57.9527C30.5075 63.2297 26.7393 66.9668 21.4599 67.2944L21.4581 67.2946C21.3812 67.2995 21.3043 67.302 21.2274 67.302C20.2296 67.302 19.2699 66.9044 18.5655 66.1925L18.5653 66.1923C17.8056 65.4251 17.4127 64.3647 17.4876 63.2866C17.8632 58.0094 21.6315 54.2723 26.9109 53.9446Z" stroke="white" stroke-width="1.5" stroke-linecap="round" stroke-linejoin="round"/>
<path d="M3.20317 47.5853C3.19816 46.5027 3.6608 45.4728 4.47068 44.7579C6.42559 43.0311 8.72992 42.1348 11.1352 42.1348C13.5127 42.1348 15.7947 43.0119 17.738 44.7017C18.5668 45.4215 19.026 46.2975 19.0312 47.52C19.0364 48.7421 18.5843 49.6233 17.7638 50.3475C15.8087 52.0744 13.5072 52.9708 11.1022 52.9708C8.72471 52.9708 6.44247 52.0937 4.4959 50.4035C3.67832 49.6934 3.20817 48.6656 3.20317 47.5853Z" stroke="white" stroke-width="1.5" stroke-linecap="round" stroke-linejoin="round"/>
<path d="M6.31504 21.7218L6.33019 21.7232C11.6488 22.1463 15.3834 25.983 15.6667 31.3137C15.7214 32.3946 15.3113 33.444 14.537 34.1987C13.834 34.8817 12.8935 35.2616 11.9217 35.2616C11.8267 35.2616 11.7271 35.2567 11.6197 35.2487C6.30145 34.822 2.56803 30.9882 2.28465 25.6586C2.22983 24.5775 2.6401 23.5279 3.41467 22.7731C4.11764 22.0903 5.05799 21.7104 6.02966 21.7104C6.13864 21.7104 6.23062 21.7134 6.31504 21.7218Z" stroke="white" stroke-width="1.5" stroke-linecap="round" stroke-linejoin="round"/>
<path d="M21.7462 5.99269L21.7469 5.99354C25.3042 10.0895 25.2822 15.5347 21.6913 19.6029C20.9784 20.4083 19.9528 20.8708 18.8782 20.8708H18.8781H18.878H18.8779H18.8778H18.8777H18.8776H18.8775H18.8774H18.8773H18.8772H18.8771H18.877H18.8769H18.8768H18.8767H18.8766H18.8765H18.8764H18.8763H18.8762H18.8761H18.876H18.8759H18.8758H18.8757H18.8756H18.8755H18.8754H18.8753H18.8752H18.8751H18.875H18.8749H18.8748H18.8747H18.8746H18.8745H18.8744H18.8743H18.8742H18.8741H18.874H18.8739H18.8738H18.8737H18.8736H18.8735H18.8734H18.8733H18.8732H18.8731H18.873H18.8729H18.8728H18.8727H18.8726H18.8725H18.8724H18.8723H18.8722H18.8721H18.872H18.8719H18.8718H18.8717H18.8716H18.8715H18.8714H18.8713H18.8712H18.8711H18.871H18.8709H18.8708H18.8707H18.8706H18.8705H18.8704H18.8703H18.8702H18.8701H18.87H18.8699H18.8698H18.8697H18.8696H18.8695H18.8694H18.8693H18.8692H18.8691H18.869H18.8689H18.8688H18.8687H18.8686H18.8685H18.8684H18.8683H18.8682H18.8681H18.868H18.8679H18.8678H18.8677H18.8676H18.8675H18.8674H18.8673H18.8672H18.8671H18.867H18.8669H18.8668H18.8667H18.8666H18.8665H18.8664H18.8663H18.8662H18.8661H18.866H18.8659H18.8658H18.8657H18.8656H18.8655H18.8654H18.8653H18.8652H18.8651H18.865H18.8649H18.8648H18.8647H18.8646H18.8645H18.8644H18.8643H18.8642H18.8641H18.864H18.8639H18.8638H18.8637H18.8636H18.8635H18.8634H18.8633H18.8632H18.8631H18.863H18.8629H18.8628H18.8627H18.8626H18.8625H18.8624H18.8623H18.8622H18.8621H18.862C17.7796 20.8653 16.7554 20.3954 16.0454 19.578C12.4882 15.4821 12.51 10.0367 16.1012 5.96536C16.8141 5.16017 17.8396 4.69775 18.9142 4.69775H18.9143H18.9144H18.9145H18.9146H18.9147H18.9148H18.9149H18.915H18.9151H18.9152H18.9153H18.9154H18.9155H18.9156H18.9157H18.9158H18.9159H18.916H18.9161H18.9162H18.9163H18.9164H18.9165H18.9166H18.9167H18.9168H18.9169H18.917H18.9171H18.9172H18.9173H18.9174H18.9175H18.9176H18.9177H18.9178H18.9179H18.918H18.9181H18.9182H18.9183H18.9184H18.9185H18.9186H18.9187H18.9188H18.9189H18.919H18.9191H18.9192H18.9193H18.9194H18.9195H18.9196H18.9197H18.9198H18.9199H18.92H18.9201H18.9202H18.9203H18.9204H18.9205H18.9206H18.9207H18.9208H18.9209H18.921H18.9211H18.9212H18.9213H18.9214H18.9215H18.9216H18.9217H18.9218H18.9219H18.922H18.9221H18.9222H18.9223H18.9224H18.9225H18.9226H18.9227H18.9228H18.9229H18.923H18.9231H18.9232H18.9233H18.9234H18.9235H18.9236H18.9237H18.9238H18.9239H18.924H18.9241H18.9242H18.9243H18.9244H18.9245H18.9246H18.9247H18.9248H18.9249H18.925H18.9251H18.9252H18.9253H18.9254H18.9255H18.9256H18.9257H18.9258H18.9259H18.926H18.9261H18.9262H18.9263H18.9264H18.9265H18.9266H18.9267H18.9268H18.9269H18.927H18.9271H18.9272H18.9273H18.9274H18.9275H18.9276H18.9277H18.9278H18.9279H18.928H18.9281H18.9282H18.9283H18.9284H18.9285H18.9286H18.9287H18.9288H18.9289H18.929H18.9291H18.9292H18.9293H18.9294H18.9295H18.9296H18.9297H18.9298H18.9299H18.93H18.9301H18.9302H18.9303H18.9304C20.0099 4.70323 21.0366 5.17318 21.7462 5.99269Z" stroke="white" stroke-width="1.5" stroke-linecap="round" stroke-linejoin="round"/>
<path d="M42.1931 55.0476L42.1932 55.0475C42.9015 54.3342 43.859 53.937 44.856 53.937C44.9329 53.937 45.0098 53.9395 45.0867 53.9445L45.0886 53.9446C50.3713 54.2723 54.1393 58.0098 54.5119 63.2868V63.2878C54.5894 64.3647 54.1971 65.4243 53.435 66.1914L53.4348 66.1915C52.7265 66.9049 51.769 67.302 50.772 67.302C50.6952 67.302 50.6183 67.2995 50.5413 67.2946L50.5394 67.2944C45.2567 66.9667 41.4887 63.2292 41.1162 57.9522L41.1161 57.9512C41.0386 56.8743 41.431 55.8147 42.1931 55.0476Z" stroke="white" stroke-width="1.5" stroke-linecap="round" stroke-linejoin="round"/>
<path d="M54.2557 44.7029L54.2566 44.7021C56.2032 43.0118 58.4854 42.1348 60.8629 42.1348C63.2679 42.1348 65.5693 43.031 67.5244 44.7579L67.5246 44.758C68.3343 45.4728 68.7969 46.5055 68.7919 47.5853C68.7869 48.6691 68.3164 49.6962 67.5001 50.4027L67.4992 50.4035C65.5526 52.0937 63.2704 52.9708 60.8929 52.9708C58.4879 52.9708 56.1865 52.0745 54.2314 50.3476L54.2312 50.3475C53.4216 49.6328 52.9589 48.6001 52.9639 47.5202C52.9689 46.4364 53.4394 45.4093 54.2557 44.7029Z" stroke="white" stroke-width="1.5" stroke-linecap="round" stroke-linejoin="round"/>
<path d="M56.332 31.3144V31.3142C56.615 25.9842 60.3485 22.15 65.667 21.7232C65.7744 21.7152 65.8741 21.7104 65.969 21.7104C66.942 21.7104 67.8817 22.0882 68.5834 22.7724L68.5846 22.7736C69.3591 23.5257 69.7716 24.5778 69.7141 25.6576V25.6577C69.431 30.9877 65.6976 34.8219 60.3792 35.2487C60.2717 35.2567 60.172 35.2616 60.077 35.2616C59.104 35.2616 58.1644 34.8838 57.4626 34.1996L57.4615 34.1984C56.687 33.4464 56.2745 32.3942 56.332 31.3144Z" stroke="white" stroke-width="1.5" stroke-linecap="round" stroke-linejoin="round"/>
<path d="M53.1207 20.8678C52.0422 20.8678 51.0201 20.4075 50.308 19.6004C46.7168 15.5323 46.6945 10.0896 50.2521 5.99035C50.9619 5.17327 51.9899 4.70323 53.0695 4.69775H53.0706H53.0717H53.0728H53.0739H53.0749H53.076H53.0771H53.0782H53.0793H53.0804H53.0815H53.0826H53.0837H53.0847C54.1594 4.69775 55.185 5.16029 55.898 5.9657C59.4886 10.0337 59.5109 15.4759 55.9535 19.575C55.2437 20.3922 54.2157 20.8623 53.1359 20.8678H53.1348H53.1337H53.1326H53.1315H53.1304H53.1293H53.1282H53.1271H53.1261H53.125H53.1239H53.1229H53.1218H53.1207Z" stroke="white" stroke-width="1.5" stroke-linecap="round" stroke-linejoin="round"/>
</svg>
