<svg width="24" height="24" viewBox="0 0 24 24" fill="none" xmlns="http://www.w3.org/2000/svg">
<path d="M7.01892 8.6755H3.68783L3.67673 8.67439C2.75513 8.66328 2.01119 7.91934 2.01119 7.00884V3.67776H2.00008C2.00008 2.75616 2.74403 2.01221 3.65452 2.00111H6.98561L6.97451 2C7.885 2 8.62895 2.74394 8.64005 3.65444V6.98553V6.97442C8.62895 7.88492 7.885 8.62886 6.97451 8.63996L7.01892 8.6755Z" stroke="white" stroke-linecap="round" stroke-linejoin="round"/>
<path d="M20.3432 8.6755H13.681L13.6699 8.67439C12.7483 8.66328 12.0044 7.91934 12.0044 7.00884V3.67776H11.9933C11.9933 2.75616 12.7372 2.01221 13.6477 2.00111H20.3099L20.2988 2C21.2093 2 21.9532 2.74394 21.9643 3.65444V6.98553V6.97442C21.9532 7.88492 21.2093 8.62886 20.2988 8.63996L20.3432 8.6755Z" stroke="white" stroke-linecap="round" stroke-linejoin="round"/>
<path d="M20.3432 18.6688H17.0121L17.001 18.6676C16.0794 18.6565 15.3354 17.9126 15.3354 17.0021V13.671H15.3243C15.3243 12.7494 16.0683 12.0055 16.9788 11.9944H20.3099L20.2988 11.9933C21.2093 11.9933 21.9532 12.7372 21.9643 13.6477V16.9788V16.9677C21.9532 17.8782 21.2093 18.6221 20.2988 18.6332L20.3432 18.6688Z" stroke="white" stroke-linecap="round" stroke-linejoin="round"/>
<path d="M9.79483 21.9997H4.24302H4.23192C2.99942 21.9997 2.0112 21.0004 2.0112 19.779C2.00009 19.7679 2.00009 19.7679 2.0112 19.7679V14.6824L2.00009 14.6713C1.98899 13.4388 2.98831 12.4506 4.20971 12.4506C4.20971 12.4495 4.20971 12.4506 4.20971 12.4506H9.76152V12.4495C10.9829 12.4384 11.9711 13.4377 11.9711 14.6591C11.9711 14.6591 11.9711 14.6591 11.97 14.6591V19.7335C11.97 20.9549 10.9707 21.9431 9.74931 21.9431C9.7382 21.9431 9.73821 21.932 9.73821 21.932L9.79483 21.9997Z" stroke="white" stroke-linecap="round" stroke-linejoin="round"/>
<path d="M8.59554 16.4369L6.60799 18.4133L5.4088 17.2141" stroke="white" stroke-linecap="round" stroke-linejoin="round"/>
</svg>
