<svg width="39" height="42" viewBox="0 0 39 42" fill="none" xmlns="http://www.w3.org/2000/svg">
<path d="M17.4505 15.4357L12.4744 6.81672C11.9677 5.93759 11.831 4.8933 12.0939 3.91333C12.3569 2.93337 12.9983 2.09792 13.877 1.5906C14.7558 1.08328 15.8 0.945582 16.7801 1.20779C17.7603 1.46999 18.5963 2.11063 19.1043 2.9889L26.76 16.2489" stroke="white" stroke-width="1.5" stroke-linecap="round" stroke-linejoin="round"/>
<path d="M11.5864 20.5885L4.31353 7.99154C4.06169 7.55619 3.89812 7.07548 3.83216 6.57687C3.7662 6.07827 3.79915 5.57156 3.92911 5.08569C4.05909 4.59983 4.28352 4.14435 4.58962 3.74526C4.89571 3.34619 5.27743 3.01135 5.71301 2.75988C6.14857 2.5084 6.62942 2.34523 7.12808 2.27968C7.62673 2.21414 8.13341 2.24751 8.61916 2.37789C9.10493 2.50827 9.56023 2.73308 9.95911 3.03951C10.3578 3.34593 10.6924 3.72795 10.9435 4.16372L17.4508 15.4347" stroke="white" stroke-width="1.5" stroke-linecap="round" stroke-linejoin="round"/>
<path d="M23.958 26.7046C22.9427 24.9462 22.6677 22.8565 23.1932 20.8953C23.7187 18.9341 25.0017 17.2619 26.7601 16.2468L24.8462 12.9318C24.5943 12.4965 24.4308 12.0157 24.3648 11.5171C24.2988 11.0186 24.3319 10.5118 24.4617 10.026C24.5917 9.54011 24.8162 9.08462 25.1223 8.68554C25.4283 8.28646 25.8102 7.95161 26.2456 7.70014C26.6812 7.44867 27.162 7.2855 27.6607 7.21996C28.1594 7.15442 28.666 7.18778 29.1519 7.31816C29.6375 7.44853 30.0929 7.67336 30.4918 7.97979C30.8905 8.28621 31.225 8.66823 31.4761 9.104L35.3039 15.734C36.3099 17.4754 36.9629 19.3977 37.2257 21.3915C37.4885 23.3852 37.356 25.4112 36.8357 27.3538C36.3154 29.2963 35.4177 31.1173 34.1936 32.7128C32.9694 34.3083 31.4429 35.6469 29.7014 36.6524C27.9599 37.6581 26.0372 38.3106 24.0434 38.5729C22.0496 38.8354 20.0236 38.7023 18.0812 38.1817C16.1388 37.661 14.318 36.7627 12.7229 35.5382C11.1276 34.3138 9.78919 32.7871 8.7841 31.0453L1.51124 18.4483C1.00466 17.5691 0.867834 16.5249 1.13085 15.5449C1.39387 14.5649 2.03521 13.7295 2.91391 13.2222C3.79262 12.7148 4.83681 12.5771 5.81699 12.8393C6.79717 13.1016 7.63315 13.7422 8.14121 14.6204L11.5862 20.5874" stroke="white" stroke-width="1.5" stroke-linecap="round" stroke-linejoin="round"/>
<path d="M10.006 41C7.41075 39.1994 5.24745 36.8453 3.672 34.1076" stroke="white" stroke-width="1.5" stroke-linecap="round" stroke-linejoin="round"/>
<path d="M28.17 1C29.917 0.99977 31.6331 1.45963 33.1459 2.33332C34.6588 3.20701 35.9148 4.46372 36.7875 5.97699" stroke="white" stroke-width="1.5" stroke-linecap="round" stroke-linejoin="round"/>
</svg>
