<svg width="135" height="38" viewBox="0 0 135 38" fill="none" xmlns="http://www.w3.org/2000/svg">
<path d="M38.6238 14.0641C37.5468 12.9254 37.0083 11.5278 37.0083 9.87148C37.0083 8.21514 37.5468 6.825 38.6238 5.70106C39.7152 4.56232 41.0435 3.99296 42.6087 3.99296C44.1739 3.99296 45.495 4.56232 46.572 5.70106C47.6634 6.825 48.2091 8.21514 48.2091 9.87148V10.6479H39.27C39.4423 11.5796 39.8372 12.3116 40.4547 12.844C41.0722 13.3764 41.7902 13.6426 42.6087 13.6426C43.6139 13.6426 44.418 13.3838 45.0212 12.8662C45.294 12.6592 45.5309 12.4004 45.732 12.0898H48.1014C47.7998 12.8144 47.4193 13.4282 46.9598 13.931C45.7822 15.1437 44.3319 15.75 42.6087 15.75C41.0435 15.75 39.7152 15.188 38.6238 14.0641ZM39.3777 8.76232H45.8397C45.7104 8.02289 45.3658 7.39437 44.8058 6.87676C44.2601 6.35915 43.5277 6.10035 42.6087 6.10035C41.8333 6.10035 41.144 6.34437 40.5409 6.83239C39.9377 7.30563 39.55 7.94894 39.3777 8.76232Z" fill="white"/>
<path d="M49.0724 4.21479H51.4418L53.8112 13.4208H55.2113L57.5806 4.21479H59.95L56.9344 15.5282H52.088L49.0724 4.21479Z" fill="white"/>
<path d="M62.4356 14.0641C61.3586 12.9254 60.8201 11.5278 60.8201 9.87148C60.8201 8.21514 61.3586 6.825 62.4356 5.70106C63.5269 4.56232 64.8552 3.99296 66.4204 3.99296C67.9857 3.99296 69.3068 4.56232 70.3838 5.70106C71.4752 6.825 72.0208 8.21514 72.0208 9.87148V10.6479H63.0818C63.2541 11.5796 63.649 12.3116 64.2665 12.844C64.8839 13.3764 65.6019 13.6426 66.4204 13.6426C67.4256 13.6426 68.2298 13.3838 68.8329 12.8662C69.1058 12.6592 69.3427 12.4004 69.5437 12.0898H71.9131C71.6116 12.8144 71.231 13.4282 70.7715 13.931C69.594 15.1437 68.1436 15.75 66.4204 15.75C64.8552 15.75 63.5269 15.188 62.4356 14.0641ZM63.1895 8.76232H69.6514C69.5222 8.02289 69.1776 7.39437 68.6175 6.87676C68.0718 6.35915 67.3395 6.10035 66.4204 6.10035C65.645 6.10035 64.9557 6.34437 64.3526 6.83239C63.7495 7.30563 63.3618 7.94894 63.1895 8.76232Z" fill="white"/>
<path d="M73.9611 15.5282V4.21479H76.2228V5.87852H76.3305C76.4885 5.56796 76.7182 5.27218 77.0198 4.9912C77.6803 4.39965 78.4558 4.10387 79.3461 4.10387H80.6385V6.32218H79.2384C78.3625 6.32218 77.6373 6.61056 77.0629 7.18732C76.5028 7.7493 76.2228 8.49613 76.2228 9.42782V15.5282H73.9611Z" fill="white"/>
<path d="M81.6002 11.9789H84.0773C84.1778 12.2746 84.3573 12.5556 84.6158 12.8218C85.1471 13.369 85.8651 13.6426 86.7698 13.6426C87.5596 13.6426 88.134 13.5169 88.493 13.2655C88.852 13.0141 89.0315 12.6961 89.0315 12.3116C89.0315 12.1785 89.0028 12.0602 88.9454 11.9567C88.8879 11.8384 88.7874 11.7349 88.6438 11.6461C88.5002 11.5574 88.3638 11.4835 88.2345 11.4243C88.1053 11.3504 87.9114 11.2838 87.653 11.2246C87.3945 11.1507 87.1863 11.0989 87.0283 11.0694C86.8703 11.025 86.6262 10.9658 86.2959 10.8919C85.98 10.818 85.7431 10.7662 85.5851 10.7366C83.2875 10.2042 82.1387 9.06549 82.1387 7.32042C82.1387 6.4331 82.5336 5.65669 83.3234 4.9912C84.1132 4.3257 85.1543 3.99296 86.4467 3.99296C88.2417 3.99296 89.5844 4.58451 90.4747 5.76761C90.8768 6.28521 91.1496 6.87676 91.2932 7.54225H88.9238C88.8089 7.24648 88.651 7.00986 88.4499 6.83239C87.9473 6.34437 87.2796 6.10035 86.4467 6.10035C85.8005 6.10035 85.3123 6.21866 84.982 6.45528C84.6661 6.6919 84.5081 6.98768 84.5081 7.3426C84.5081 7.4757 84.5368 7.60141 84.5943 7.71972C84.6517 7.82324 84.7522 7.91937 84.8958 8.0081C85.0394 8.09683 85.1759 8.17077 85.3051 8.22993C85.4487 8.28908 85.6426 8.35563 85.8867 8.42958C86.1308 8.48873 86.339 8.54049 86.5113 8.58486C86.6837 8.61444 86.9206 8.6662 87.2222 8.74014C87.5381 8.7993 87.7822 8.85106 87.9545 8.89542C90.2521 9.42782 91.4009 10.5665 91.4009 12.3116C91.4009 13.2581 90.9845 14.0715 90.1516 14.7518C89.3331 15.4173 88.2058 15.75 86.7698 15.75C84.903 15.75 83.4742 15.1215 82.4834 13.8644C82.0382 13.2877 81.7438 12.6592 81.6002 11.9789Z" fill="white"/>
<path d="M94.2607 14.0863C93.2124 12.9771 92.6883 11.5722 92.6883 9.87148C92.6883 8.17077 93.2124 6.76584 94.2607 5.65669C95.309 4.54753 96.6157 3.99296 98.181 3.99296C99.9329 3.99296 101.362 4.68063 102.467 6.05599C102.941 6.6919 103.272 7.37218 103.458 8.09683H101.089C100.988 7.72711 100.802 7.39437 100.529 7.09859C99.9688 6.4331 99.1862 6.10035 98.181 6.10035C97.2906 6.10035 96.5439 6.44789 95.9408 7.14296C95.352 7.83803 95.0577 8.74754 95.0577 9.87148C95.0577 10.9954 95.352 11.9049 95.9408 12.6C96.5439 13.2951 97.2906 13.6426 98.181 13.6426C99.2149 13.6426 100.026 13.3099 100.615 12.6444C100.873 12.3486 101.067 12.0158 101.197 11.6461H103.458C103.272 12.4004 102.941 13.088 102.467 13.7092C101.376 15.0697 99.9472 15.75 98.181 15.75C96.6157 15.75 95.309 15.1954 94.2607 14.0863Z" fill="white"/>
<path d="M106.101 14.1306C105.124 13.0363 104.636 11.6165 104.636 9.87148C104.636 8.12641 105.124 6.71408 106.101 5.63451C107.092 4.54014 108.327 3.99296 109.806 3.99296C110.739 3.99296 111.594 4.27394 112.369 4.83592C112.699 5.07254 112.994 5.34613 113.252 5.65669H113.36V4.21479H115.622V15.5282H113.36V13.9754H113.252C113.037 14.2859 112.742 14.5817 112.369 14.8627C111.594 15.4542 110.739 15.75 109.806 15.75C108.327 15.75 107.092 15.2102 106.101 14.1306ZM107.867 7.07641C107.293 7.72711 107.006 8.6588 107.006 9.87148C107.006 11.0842 107.293 12.0158 107.867 12.6665C108.442 13.3173 109.231 13.6426 110.237 13.6426C111.184 13.6426 111.938 13.3173 112.498 12.6665C113.073 12.0011 113.36 11.0694 113.36 9.87148C113.36 8.67359 113.073 7.7493 112.498 7.09859C111.938 6.4331 111.184 6.10035 110.237 6.10035C109.231 6.10035 108.442 6.4257 107.867 7.07641Z" fill="white"/>
<path d="M118.198 15.5282V0H120.46V13.4208H122.937V15.5282H118.198Z" fill="white"/>
<path d="M125.415 14.0641C124.338 12.9254 123.799 11.5278 123.799 9.87148C123.799 8.21514 124.338 6.825 125.415 5.70106C126.506 4.56232 127.834 3.99296 129.4 3.99296C130.965 3.99296 132.286 4.56232 133.363 5.70106C134.454 6.825 135 8.21514 135 9.87148V10.6479H126.061C126.233 11.5796 126.628 12.3116 127.246 12.844C127.863 13.3764 128.581 13.6426 129.4 13.6426C130.405 13.6426 131.209 13.3838 131.812 12.8662C132.085 12.6592 132.322 12.4004 132.523 12.0898H134.892C134.591 12.8144 134.21 13.4282 133.751 13.931C132.573 15.1437 131.123 15.75 129.4 15.75C127.834 15.75 126.506 15.188 125.415 14.0641ZM126.169 8.76232H132.631C132.501 8.02289 132.157 7.39437 131.597 6.87676C131.051 6.35915 130.319 6.10035 129.4 6.10035C128.624 6.10035 127.935 6.34437 127.332 6.83239C126.729 7.30563 126.341 7.94894 126.169 8.76232Z" fill="white"/>
<path d="M11.1704 4.14453L0 15.7498H20.9178L32.1812 4.14453H11.1704Z" fill="#6347F5"/>
<path d="M32.1812 25.7931L20.9267 37.3025L20.9177 15.7499L32.1812 4.14459L32.1812 25.7931Z" fill="#6347F5"/>
</svg>
