<svg width="8" height="281" viewBox="0 0 8 281" fill="none" xmlns="http://www.w3.org/2000/svg">
<path opacity="0.3" d="M4.35355 0.646447C4.15829 0.451184 3.84171 0.451184 3.64645 0.646447L0.464466 3.82843C0.269204 4.02369 0.269204 4.34027 0.464466 4.53553C0.659728 4.7308 0.976311 4.7308 1.17157 4.53553L4 1.70711L6.82843 4.53553C7.02369 4.7308 7.34027 4.7308 7.53553 4.53553C7.7308 4.34027 7.7308 4.02369 7.53553 3.82843L4.35355 0.646447ZM3.64645 280.854C3.84171 281.049 4.15829 281.049 4.35355 280.854L7.53553 277.672C7.7308 277.476 7.7308 277.16 7.53553 276.964C7.34027 276.769 7.02369 276.769 6.82843 276.964L4 279.793L1.17157 276.964C0.976311 276.769 0.659728 276.769 0.464466 276.964C0.269204 277.16 0.269204 277.476 0.464466 277.672L3.64645 280.854ZM3.5 1V280.5H4.5V1H3.5Z" fill="white"/>
</svg>
