<svg width="204" height="280" viewBox="0 0 204 280" fill="none" xmlns="http://www.w3.org/2000/svg">
<path opacity="0.3" d="M201.919 0.00662177C202.192 -0.0380455 202.449 0.146653 202.493 0.419161L203.221 4.8599C203.266 5.13241 203.081 5.38953 202.809 5.43419C202.536 5.47886 202.279 5.29416 202.235 5.02165L201.587 1.07433L197.64 1.72135C197.368 1.76601 197.111 1.58132 197.066 1.30881C197.021 1.0363 197.206 0.779184 197.478 0.734517L201.919 0.00662177ZM1.97937 279.554C1.70686 279.599 1.44974 279.414 1.40507 279.141L0.677189 274.701C0.632519 274.428 0.817216 274.171 1.08972 274.126C1.36223 274.082 1.61934 274.266 1.66401 274.539L2.31103 278.486L6.25835 277.839C6.53085 277.795 6.78797 277.979 6.83264 278.252C6.87731 278.524 6.69262 278.781 6.42011 278.826L1.97937 279.554ZM202.406 0.791746L2.30458 279.352L1.49241 278.769L201.594 0.208328L202.406 0.791746Z" fill="white"/>
</svg>
