<svg width="410" height="110" viewBox="0 0 410 110" fill="none" xmlns="http://www.w3.org/2000/svg">
<path d="M117.302 41.4729C114.031 38.115 112.396 33.9938 112.396 29.1095C112.396 24.2253 114.031 20.1259 117.302 16.8116C120.617 13.4536 124.651 11.7746 129.404 11.7746C134.158 11.7746 138.17 13.4536 141.441 16.8116C144.756 20.1259 146.413 24.2253 146.413 29.1095V31.3991H119.265C119.788 34.1465 120.987 36.3052 122.863 37.8751C124.738 39.4451 126.918 40.23 129.404 40.23C132.457 40.23 134.899 39.4669 136.731 37.9405C137.56 37.33 138.279 36.5668 138.89 35.651H146.086C145.17 37.7879 144.014 39.5977 142.619 41.0804C139.042 44.6564 134.638 46.4444 129.404 46.4444C124.651 46.4444 120.617 44.7873 117.302 41.4729ZM119.592 25.8388H139.217C138.824 23.6583 137.778 21.8049 136.077 20.2786C134.42 18.7522 132.195 17.989 129.404 17.989C127.049 17.989 124.956 18.7086 123.124 20.1477C121.292 21.5432 120.115 23.4403 119.592 25.8388Z" fill="white"/>
<path d="M149.035 12.4288H156.231L163.427 39.5759H167.679L174.875 12.4288H182.071L172.912 45.7903H158.193L149.035 12.4288Z" fill="white"/>
<path d="M189.619 41.4729C186.348 38.115 184.713 33.9938 184.713 29.1095C184.713 24.2253 186.348 20.1259 189.619 16.8116C192.934 13.4536 196.968 11.7746 201.721 11.7746C206.475 11.7746 210.487 13.4536 213.758 16.8116C217.073 20.1259 218.73 24.2253 218.73 29.1095V31.3991H191.582C192.105 34.1465 193.304 36.3052 195.18 37.8751C197.055 39.4451 199.236 40.23 201.721 40.23C204.774 40.23 207.217 39.4669 209.048 37.9405C209.877 37.33 210.596 36.5668 211.207 35.651H218.403C217.487 37.7879 216.331 39.5977 214.936 41.0804C211.36 44.6564 206.955 46.4444 201.721 46.4444C196.968 46.4444 192.934 44.7873 189.619 41.4729ZM191.909 25.8388H211.534C211.142 23.6583 210.095 21.8049 208.394 20.2786C206.737 18.7522 204.513 17.989 201.721 17.989C199.366 17.989 197.273 18.7086 195.441 20.1477C193.61 21.5432 192.432 23.4403 191.909 25.8388Z" fill="white"/>
<path d="M224.623 45.7903V12.4288H231.492V17.3349H231.819C232.298 16.4191 232.996 15.5469 233.912 14.7183C235.918 12.9739 238.273 12.1017 240.977 12.1017H244.902V18.6432H240.65C237.99 18.6432 235.787 19.4936 234.043 21.1944C232.342 22.8515 231.492 25.0538 231.492 27.8013V45.7903H224.623Z" fill="white"/>
<path d="M247.823 35.3239H255.346C255.651 36.1961 256.196 37.0247 256.981 37.8097C258.595 39.4233 260.776 40.23 263.523 40.23C265.922 40.23 267.666 39.8594 268.757 39.118C269.847 38.3766 270.392 37.439 270.392 36.3052C270.392 35.9127 270.305 35.5638 270.13 35.2585C269.956 34.9097 269.651 34.6044 269.215 34.3427C268.778 34.0811 268.364 33.863 267.972 33.6886C267.579 33.4705 266.99 33.2743 266.205 33.0998C265.42 32.8818 264.788 32.7292 264.308 32.6419C263.829 32.5111 263.087 32.3367 262.084 32.1186C261.125 31.9006 260.405 31.7479 259.925 31.6607C252.947 30.0908 249.458 26.7328 249.458 21.5869C249.458 18.9703 250.658 16.6808 253.056 14.7183C255.455 12.7559 258.617 11.7746 262.542 11.7746C267.993 11.7746 272.071 13.519 274.775 17.0078C275.996 18.5342 276.825 20.2786 277.261 22.241H270.065C269.716 21.3688 269.236 20.671 268.626 20.1477C267.099 18.7086 265.071 17.989 262.542 17.989C260.579 17.989 259.097 18.3379 258.094 19.0357C257.134 19.7334 256.654 20.6056 256.654 21.6523C256.654 22.0448 256.742 22.4154 256.916 22.7643C257.091 23.0696 257.396 23.3531 257.832 23.6147C258.268 23.8764 258.682 24.0944 259.075 24.2689C259.511 24.4433 260.1 24.6395 260.841 24.8576C261.583 25.032 262.215 25.1847 262.738 25.3155C263.262 25.4027 263.981 25.5553 264.897 25.7734C265.856 25.9478 266.598 26.1005 267.121 26.2313C274.099 27.8013 277.588 31.1592 277.588 36.3052C277.588 39.0962 276.323 41.4947 273.794 43.5008C271.308 45.4632 267.884 46.4444 263.523 46.4444C257.854 46.4444 253.514 44.591 250.505 40.8842C249.153 39.1834 248.259 37.33 247.823 35.3239Z" fill="white"/>
<path d="M286.273 41.5383C283.09 38.2676 281.498 34.1247 281.498 29.1095C281.498 24.0944 283.09 19.9515 286.273 16.6808C289.457 13.41 293.426 11.7746 298.179 11.7746C303.5 11.7746 307.839 13.8025 311.197 17.8582C312.637 19.7334 313.64 21.7395 314.207 23.8764H307.011C306.705 22.7861 306.138 21.8049 305.31 20.9327C303.609 18.9703 301.232 17.989 298.179 17.989C295.475 17.989 293.208 19.0139 291.376 21.0635C289.588 23.1132 288.694 25.7952 288.694 29.1095C288.694 32.4239 289.588 35.1059 291.376 37.1556C293.208 39.2052 295.475 40.23 298.179 40.23C301.319 40.23 303.783 39.2488 305.571 37.2864C306.356 36.4142 306.945 35.433 307.338 34.3427H314.207C313.64 36.5668 312.637 38.5947 311.197 40.4263C307.883 44.4384 303.544 46.4444 298.179 46.4444C293.426 46.4444 289.457 44.8091 286.273 41.5383Z" fill="white"/>
<path d="M322.233 41.6692C319.267 38.442 317.784 34.2555 317.784 29.1095C317.784 23.9636 319.267 19.7989 322.233 16.6153C325.242 13.3882 328.992 11.7746 333.484 11.7746C336.319 11.7746 338.914 12.6032 341.269 14.2604C342.272 14.9582 343.166 15.7649 343.951 16.6808H344.278V12.4288H351.147V45.7903H344.278V41.2113H343.951C343.297 42.1271 342.403 42.9993 341.269 43.8279C338.914 45.5722 336.319 46.4444 333.484 46.4444C328.992 46.4444 325.242 44.8527 322.233 41.6692ZM327.597 20.8673C325.852 22.7861 324.98 25.5335 324.98 29.1095C324.98 32.6856 325.852 35.433 327.597 37.3518C329.341 39.2706 331.74 40.23 334.793 40.23C337.671 40.23 339.961 39.2706 341.662 37.3518C343.406 35.3894 344.278 32.6419 344.278 29.1095C344.278 25.5772 343.406 22.8515 341.662 20.9327C339.961 18.9703 337.671 17.989 334.793 17.989C331.74 17.989 329.341 18.9485 327.597 20.8673Z" fill="white"/>
<path d="M358.972 45.7903V0H365.841V39.5759H373.364V45.7903H358.972Z" fill="white"/>
<path d="M380.889 41.4729C377.618 38.115 375.983 33.9938 375.983 29.1095C375.983 24.2253 377.618 20.1259 380.889 16.8116C384.204 13.4536 388.238 11.7746 392.991 11.7746C397.745 11.7746 401.757 13.4536 405.028 16.8116C408.343 20.1259 410 24.2253 410 29.1095V31.3991H382.852C383.375 34.1465 384.574 36.3052 386.45 37.8751C388.325 39.4451 390.506 40.23 392.991 40.23C396.044 40.23 398.487 39.4669 400.318 37.9405C401.147 37.33 401.866 36.5668 402.477 35.651H409.673C408.757 37.7879 407.601 39.5977 406.206 41.0804C402.63 44.6564 398.225 46.4444 392.991 46.4444C388.238 46.4444 384.204 44.7873 380.889 41.4729ZM383.179 25.8388H402.804C402.412 23.6583 401.365 21.8049 399.664 20.2786C398.007 18.7522 395.783 17.989 392.991 17.989C390.636 17.989 388.543 18.7086 386.711 20.1477C384.88 21.5432 383.702 23.4403 383.179 25.8388Z" fill="white"/>
<path d="M64.0166 110L97.7354 76.2666V12.2222H33.7187L0 45.9555L64.0166 45.9555V110Z" fill="#6347F5"/>
</svg>
