<svg width="72" height="72" viewBox="0 0 72 72" fill="none" xmlns="http://www.w3.org/2000/svg">
<g clip-path="url(#clip0_16_2711)">
<path d="M45 57V55.5C45 52.7152 43.8938 50.0445 41.9246 48.0754C39.9555 46.1062 37.2848 45 34.5 45H19.5C16.7152 45 14.0445 46.1062 12.0754 48.0754C10.1062 50.0445 9 52.7152 9 55.5V57" stroke="white" stroke-width="1.5" stroke-linecap="round" stroke-linejoin="round"/>
<path d="M27 33C32.799 33 37.5 28.299 37.5 22.5C37.5 16.701 32.799 12 27 12C21.201 12 16.5 16.701 16.5 22.5C16.5 28.299 21.201 33 27 33Z" stroke="white" stroke-width="1.5" stroke-linecap="round" stroke-linejoin="round"/>
<path d="M66 57V55.5C66 52.7152 64.8938 50.0445 62.9246 48.0754C60.9555 46.1062 58.2848 45 55.5 45H54" stroke="white" stroke-width="1.5" stroke-linecap="round" stroke-linejoin="round"/>
<path d="M48 12C50.7848 12 53.4555 13.1062 55.4246 15.0754C57.3938 17.0445 58.5 19.7152 58.5 22.5C58.5 25.2848 57.3938 27.9555 55.4246 29.9246C53.4555 31.8938 50.7848 33 48 33" stroke="white" stroke-width="1.5" stroke-linecap="round" stroke-linejoin="round"/>
</g>
<defs>
<clipPath id="clip0_16_2711">
<rect width="72" height="72" fill="white"/>
</clipPath>
</defs>
</svg>
