<svg width="72" height="72" viewBox="0 0 72 72" fill="none" xmlns="http://www.w3.org/2000/svg">
<path d="M28.3432 9H10.6568C9.74179 9 9 9.74179 9 10.6568V28.3432C9 29.2582 9.74179 30 10.6568 30H28.3432C29.2582 30 30 29.2582 30 28.3432V10.6568C30 9.74179 29.2582 9 28.3432 9Z" stroke="white" stroke-width="1.5" stroke-linecap="round" stroke-linejoin="round"/>
<path d="M61.3432 9H43.6568C42.7418 9 42 9.74179 42 10.6568V28.3432C42 29.2582 42.7418 30 43.6568 30H61.3432C62.2582 30 63 29.2582 63 28.3432V10.6568C63 9.74179 62.2582 9 61.3432 9Z" stroke="white" stroke-width="1.5" stroke-linecap="round" stroke-linejoin="round"/>
<path d="M28.3432 42H10.6568C9.74179 42 9 42.7418 9 43.6568V61.3432C9 62.2582 9.74179 63 10.6568 63H28.3432C29.2582 63 30 62.2582 30 61.3432V43.6568C30 42.7418 29.2582 42 28.3432 42Z" stroke="white" stroke-width="1.5" stroke-linecap="round" stroke-linejoin="round"/>
<path d="M61.3432 42H43.6568C42.7418 42 42 42.7418 42 43.6568V61.3432C42 62.2582 42.7418 63 43.6568 63H61.3432C62.2582 63 63 62.2582 63 61.3432V43.6568C63 42.7418 62.2582 42 61.3432 42Z" stroke="white" stroke-width="1.5" stroke-linecap="round" stroke-linejoin="round"/>
</svg>
