<svg width="72" height="72" viewBox="0 0 72 72" fill="none" xmlns="http://www.w3.org/2000/svg">
<path d="M21 18V12C21 10.344 19.656 9 18 9H12C10.344 9 9 10.344 9 12V18C9 19.656 10.344 21 12 21H18C19.656 21 21 19.656 21 18Z" stroke="white" stroke-width="1.5" stroke-linecap="round" stroke-linejoin="round"/>
<path d="M23.538 42.0006V36.4626C23.538 34.8066 22.194 33.4626 20.538 33.4626H15C13.344 33.4626 12 34.8066 12 36.4626V42.0006C12 43.6566 13.344 45.0006 15 45.0006H20.538C22.194 45.0006 23.538 43.6566 23.538 42.0006Z" stroke="white" stroke-width="1.5" stroke-linecap="round" stroke-linejoin="round"/>
<path d="M42 27V21C42 19.344 40.656 18 39 18H33C31.344 18 30 19.344 30 21V27C30 28.656 31.344 30 33 30H39C40.656 30 42 28.656 42 27Z" stroke="white" stroke-width="1.5" stroke-linecap="round" stroke-linejoin="round"/>
<path d="M39 51V42C39 40.344 40.344 39 42 39H51V30C51 28.344 52.344 27 54 27H60C61.656 27 63 28.344 63 30V60C63 61.656 61.656 63 60 63H30C28.344 63 27 61.656 27 60V54C27 52.344 28.344 51 30 51H39Z" stroke="white" stroke-width="1.5" stroke-linecap="round" stroke-linejoin="round"/>
</svg>
