<svg width="72" height="72" viewBox="0 0 72 72" fill="none" xmlns="http://www.w3.org/2000/svg">
<path d="M4.5 33.75L9 29.25L13.5 33.75" stroke="white" stroke-width="1.5" stroke-linecap="round" stroke-linejoin="round"/>
<path d="M67.5 38.25L63 42.75L58.5 38.25" stroke="white" stroke-width="1.5" stroke-linecap="round" stroke-linejoin="round"/>
<path d="M14.0339 20.37C18.9299 13.503 26.9249 9 35.9999 9C50.9099 9 62.9999 21.09 62.9999 36C62.9999 38.052 62.7509 40.044 62.3189 41.964" stroke="white" stroke-width="1.5" stroke-linecap="round" stroke-linejoin="round"/>
<path d="M57.9659 20.3701C51.0599 22.6921 43.6889 24.0001 35.9999 24.0001C28.3109 24.0001 20.9399 22.6921 14.0339 20.3701" stroke="white" stroke-width="1.5" stroke-linecap="round" stroke-linejoin="round"/>
<path d="M57.9539 51.6174C53.0609 58.4844 45.0659 62.9874 35.9879 62.9874C21.0779 62.9874 8.98792 50.8974 8.98792 35.9874C8.98792 33.9354 9.23692 31.9434 9.66891 30.0234" stroke="white" stroke-width="1.5" stroke-linecap="round" stroke-linejoin="round"/>
<path d="M14.025 51.6183C20.931 49.2963 28.302 47.9883 35.991 47.9883C43.68 47.9883 51.051 49.2963 57.957 51.6183" stroke="white" stroke-width="1.5" stroke-linecap="round" stroke-linejoin="round"/>
<path d="M43.9551 16.9081C48.3485 27.4523 48.3485 44.5477 43.9551 55.0918C39.5617 65.636 32.4387 65.636 28.0452 55.0918C23.6518 44.5477 23.6518 27.4522 28.0452 16.9081C32.4387 6.36396 39.5617 6.36396 43.9551 16.9081" stroke="white" stroke-width="1.5" stroke-linecap="round" stroke-linejoin="round"/>
</svg>
