<svg width="72" height="72" viewBox="0 0 72 72" fill="none" xmlns="http://www.w3.org/2000/svg">
<path d="M22.4997 27.0006H13.4997L13.4697 26.9976C10.9797 26.9676 8.96973 24.9576 8.96973 22.4976V13.4976H8.93973C8.93973 11.0076 10.9497 8.9976 13.4097 8.9676H22.4097L22.3797 8.9646C24.8397 8.9646 26.8497 10.9746 26.8797 13.4346V22.4346V22.4046C26.8497 24.8646 24.8397 26.8746 22.3797 26.9046L22.4997 27.0006Z" stroke="white" stroke-width="1.5" stroke-linecap="round" stroke-linejoin="round"/>
<path d="M58.5 27.0006H40.5L40.47 26.9976C37.98 26.9676 35.97 24.9576 35.97 22.4976V13.4976H35.94C35.94 11.0076 37.95 8.9976 40.41 8.9676H58.41L58.38 8.9646C60.84 8.9646 62.85 10.9746 62.88 13.4346V22.4346V22.4046C62.85 24.8646 60.84 26.8746 58.38 26.9046L58.5 27.0006Z" stroke="white" stroke-width="1.5" stroke-linecap="round" stroke-linejoin="round"/>
<path d="M58.5 54.0006H49.5L49.47 53.9976C46.98 53.9676 44.97 51.9576 44.97 49.4976V40.4976H44.94C44.94 38.0076 46.95 35.9976 49.41 35.9676H58.41L58.38 35.9646C60.84 35.9646 62.85 37.9746 62.88 40.4346V49.4346V49.4046C62.85 51.8646 60.84 53.8746 58.38 53.9046L58.5 54.0006Z" stroke="white" stroke-width="1.5" stroke-linecap="round" stroke-linejoin="round"/>
<path d="M29.9999 63.001H14.9999H14.9699C11.6399 63.001 8.96988 60.301 8.96988 57.001C8.93988 56.971 8.93988 56.971 8.96988 56.971V43.231L8.93988 43.201C8.90988 39.871 11.6099 37.201 14.9099 37.201C14.9099 37.198 14.9099 37.201 14.9099 37.201H29.9099V37.198C33.2099 37.168 35.8799 39.868 35.8799 43.168C35.8799 43.168 35.8799 43.168 35.8769 43.168V56.878C35.8769 60.178 33.1769 62.848 29.8769 62.848C29.8469 62.848 29.8469 62.818 29.8469 62.818L29.9999 63.001Z" stroke="white" stroke-width="1.5" stroke-linecap="round" stroke-linejoin="round"/>
<path d="M26.7598 47.9705L21.3898 53.3105L18.1498 50.0705" stroke="white" stroke-width="1.5" stroke-linecap="round" stroke-linejoin="round"/>
</svg>
