<svg width="40" height="40" viewBox="0 0 40 40" fill="none" xmlns="http://www.w3.org/2000/svg">
<path fill-rule="evenodd" clip-rule="evenodd" d="M10 35H6.66667C5.74667 35 5 34.2533 5 33.3333V23.3333C5 22.4133 5.74667 21.6666 6.66667 21.6666H10C10.92 21.6666 11.6667 22.4133 11.6667 23.3333V33.3333C11.6667 34.2533 10.92 35 10 35Z" stroke="white" stroke-width="1.5" stroke-linecap="round" stroke-linejoin="round"/>
<path d="M21.6667 28.3333H25.555C26.2767 28.3333 26.9784 28.0999 27.555 27.6666L31.5817 24.6466C32.5867 23.8933 33.9934 23.9933 34.8817 24.8816V24.8816C35.8684 25.8683 35.8684 27.4666 34.8817 28.4516L31.4267 31.9066C30.4967 32.8366 29.31 33.4716 28.02 33.7299L23.1367 34.7066C22.1684 34.8999 21.17 34.8766 20.2117 34.6366L15.795 33.5333C15.2667 33.3999 14.725 33.3333 14.18 33.3333H11.6667" stroke="white" stroke-width="1.5" stroke-linecap="round" stroke-linejoin="round"/>
<path d="M21.6667 28.3333H24.1417C25.5367 28.3333 26.6667 27.2033 26.6667 25.8083V25.3033C26.6667 24.145 25.8784 23.135 24.755 22.855L20.935 21.9C20.3134 21.745 19.6767 21.6666 19.0367 21.6666V21.6666C17.4917 21.6666 15.98 22.1233 14.695 22.9816L11.6667 25" stroke="white" stroke-width="1.5" stroke-linecap="round" stroke-linejoin="round"/>
<path d="M28.6147 8.59205C30.4618 10.4392 30.4618 13.4341 28.6147 15.2813C26.7675 17.1285 23.7726 17.1285 21.9254 15.2813C20.0782 13.4341 20.0782 10.4392 21.9254 8.59205C23.7726 6.74487 26.7675 6.74487 28.6147 8.59205" stroke="white" stroke-width="1.5" stroke-linecap="round" stroke-linejoin="round"/>
<path d="M24.385 7.29171C24.23 6.35004 23.8 5.44504 23.0733 4.71837C21.2267 2.87171 18.2317 2.87171 16.385 4.71837C14.5383 6.56504 14.5383 9.56004 16.385 11.4067C17.535 12.5567 19.1283 12.9884 20.6133 12.7067" stroke="white" stroke-width="1.5" stroke-linecap="round" stroke-linejoin="round"/>
</svg>
