<svg width="40" height="40" viewBox="0 0 40 40" fill="none" xmlns="http://www.w3.org/2000/svg">
<path d="M5 13.3333H35" stroke="white" stroke-width="1.5" stroke-linecap="round" stroke-linejoin="round"/>
<path d="M12.5 28.3334V25.8667" stroke="white" stroke-width="1.5" stroke-linecap="round" stroke-linejoin="round"/>
<path d="M17.5 28.3333V20.4166" stroke="white" stroke-width="1.5" stroke-linecap="round" stroke-linejoin="round"/>
<path d="M22.5 28.3333V24.8833" stroke="white" stroke-width="1.5" stroke-linecap="round" stroke-linejoin="round"/>
<path d="M27.5 28.3334V21.3334" stroke="white" stroke-width="1.5" stroke-linecap="round" stroke-linejoin="round"/>
<path d="M18.11 9.15837C18.105 9.15837 18.1017 9.16171 18.1017 9.16671C18.1017 9.17171 18.105 9.17504 18.11 9.17504C18.115 9.17504 18.1183 9.17171 18.1183 9.16671C18.1183 9.16171 18.115 9.15837 18.11 9.15837" stroke="white" stroke-width="1.5" stroke-linecap="round" stroke-linejoin="round"/>
<path d="M13.8783 9.15837C13.8733 9.15837 13.8699 9.16171 13.8699 9.16671C13.8699 9.17171 13.8733 9.17504 13.8783 9.17504C13.8833 9.17504 13.8866 9.17171 13.8866 9.16671C13.8866 9.16171 13.8833 9.15837 13.8783 9.15837" stroke="white" stroke-width="1.5" stroke-linecap="round" stroke-linejoin="round"/>
<path d="M9.63152 9.14995C9.62652 9.14995 9.62319 9.15328 9.62319 9.15828C9.62319 9.16328 9.62652 9.16662 9.63152 9.16662C9.63652 9.16662 9.63985 9.16328 9.63985 9.15828C9.63985 9.15328 9.63652 9.14995 9.63152 9.14995" stroke="white" stroke-width="1.5" stroke-linecap="round" stroke-linejoin="round"/>
<path fill-rule="evenodd" clip-rule="evenodd" d="M31.6667 35H8.33333C6.49167 35 5 33.5083 5 31.6667V8.33333C5 6.49167 6.49167 5 8.33333 5H31.6667C33.5083 5 35 6.49167 35 8.33333V31.6667C35 33.5083 33.5083 35 31.6667 35Z" stroke="white" stroke-width="1.5" stroke-linecap="round" stroke-linejoin="round"/>
</svg>
